<svg xmlns="http://www.w3.org/2000/svg" xmlns:xlink="http://www.w3.org/1999/xlink" width="150" zoomAndPan="magnify" viewBox="0 0 112.5 30.000001" height="40" preserveAspectRatio="xMidYMid meet" version="1.0"><defs><g/><clipPath id="41ee755f59"><path d="M 37.21875 0.597656 L 74.960938 0.597656 L 74.960938 28.175781 L 37.21875 28.175781 Z M 37.21875 0.597656 " clip-rule="nonzero"/></clipPath></defs><g fill="#006c3f" fill-opacity="1"><g transform="translate(2.668847, 18.87097)"><g><path d="M 11.6875 -11.796875 L 9.515625 -11.796875 C 9.28125 -11.796875 9.125 -11.671875 9.125 -11.484375 L 9.125 -11.40625 C 9.125 -10.953125 9.84375 -10.75 9.84375 -9.984375 L 9.84375 -3.515625 L 5.046875 -9.96875 C 4.484375 -10.703125 5.359375 -11.0625 5.359375 -11.40625 L 5.359375 -11.484375 C 5.359375 -11.671875 5.21875 -11.796875 4.984375 -11.796875 L 1.078125 -11.796875 C 0.828125 -11.796875 0.6875 -11.671875 0.6875 -11.484375 L 0.6875 -11.40625 C 0.6875 -10.953125 1.34375 -10.734375 1.34375 -9.96875 L 1.34375 -1.828125 C 1.34375 -1.0625 0.6875 -0.84375 0.6875 -0.375 L 0.6875 -0.3125 C 0.6875 -0.109375 0.828125 0 1.078125 0 L 3.203125 0 C 3.453125 0 3.625 -0.109375 3.625 -0.3125 L 3.625 -0.375 C 3.625 -0.84375 2.84375 -1.0625 2.84375 -1.828125 L 2.84375 -8.390625 L 8.75 -0.546875 C 9 -0.203125 9.234375 0 9.640625 0 L 10.578125 0 C 11.0625 0 11.34375 -0.28125 11.34375 -0.78125 L 11.34375 -9.984375 C 11.34375 -10.75 12.09375 -10.953125 12.09375 -11.40625 L 12.09375 -11.484375 C 12.09375 -11.671875 11.921875 -11.796875 11.6875 -11.796875 Z M 11.6875 -11.796875 "/></g></g></g><g fill="#006c3f" fill-opacity="1"><g transform="translate(15.270431, 18.87097)"><g><path d="M 4.953125 0.171875 C 7.375 0.171875 9.390625 -1.546875 9.390625 -3.96875 C 9.390625 -6.40625 7.328125 -8.140625 4.828125 -8.140625 C 2.453125 -8.140625 0.34375 -6.46875 0.34375 -4 C 0.34375 -1.59375 2.40625 0.171875 4.953125 0.171875 Z M 5.296875 -0.640625 C 3.953125 -0.640625 3.28125 -3.90625 3.28125 -5.25 C 3.28125 -6.59375 3.578125 -7.328125 4.375 -7.328125 C 5.6875 -7.328125 6.359375 -3.984375 6.359375 -2.6875 C 6.359375 -1.4375 6.078125 -0.640625 5.296875 -0.640625 Z M 5.296875 -0.640625 "/></g></g></g><g fill="#006c3f" fill-opacity="1"><g transform="translate(25.016323, 18.87097)"><g><path d="M 4.03125 0.171875 C 6.765625 0.171875 8.65625 -2.171875 8.65625 -5.578125 C 8.65625 -7.328125 7.890625 -8.125 6.859375 -8.125 C 6.046875 -8.125 5.578125 -7.625 5.578125 -6.96875 C 5.578125 -5.546875 7.1875 -5.625 7.1875 -4.21875 C 7.1875 -2.796875 6.078125 -0.875 4.734375 -0.9375 C 4.109375 -0.953125 3.796875 -1.359375 3.8125 -2.578125 L 3.890625 -7.71875 C 3.890625 -8.015625 3.59375 -8.125 3.09375 -8.0625 L 0.609375 -7.71875 C 0.40625 -7.6875 0.25 -7.53125 0.25 -7.34375 L 0.25 -7.28125 C 0.25 -6.859375 0.90625 -6.65625 0.90625 -5.875 L 0.90625 -3.4375 C 0.90625 -0.5 2.609375 0.171875 4.03125 0.171875 Z M 4.03125 0.171875 "/></g></g></g><g fill="#006c3f" fill-opacity="1"><g transform="translate(34.081495, 18.87097)"><g><path d="M 4.953125 0.171875 C 7.375 0.171875 9.390625 -1.546875 9.390625 -3.96875 C 9.390625 -6.40625 7.328125 -8.140625 4.828125 -8.140625 C 2.453125 -8.140625 0.34375 -6.46875 0.34375 -4 C 0.34375 -1.59375 2.40625 0.171875 4.953125 0.171875 Z M 5.296875 -0.640625 C 3.953125 -0.640625 3.28125 -3.90625 3.28125 -5.25 C 3.28125 -6.59375 3.578125 -7.328125 4.375 -7.328125 C 5.6875 -7.328125 6.359375 -3.984375 6.359375 -2.6875 C 6.359375 -1.4375 6.078125 -0.640625 5.296875 -0.640625 Z M 5.296875 -0.640625 "/></g></g></g><g fill="#006c3f" fill-opacity="1"><g transform="translate(43.827387, 18.87097)"><g/></g></g><g fill="#006c3f" fill-opacity="1"><g transform="translate(47.081555, 18.87097)"><g><path d="M 6.09375 0.171875 C 9.21875 0.171875 10.703125 -1.875 10.78125 -3.984375 C 10.796875 -4.53125 10.1875 -4.65625 9.859375 -4.28125 C 9.390625 -3.59375 8.609375 -2.53125 7.0625 -2.53125 C 5.171875 -2.53125 3.328125 -4.640625 3.328125 -7.875 C 3.328125 -9.71875 4.28125 -10.765625 5.328125 -10.765625 C 7.328125 -10.765625 7.296875 -7.453125 9.375 -7.453125 C 10.234375 -7.453125 10.75 -8 10.75 -8.765625 C 10.75 -10.515625 8.515625 -11.9375 5.921875 -11.9375 C 2.59375 -11.9375 0.40625 -9.421875 0.40625 -6.046875 C 0.40625 -2.828125 2.78125 0.171875 6.09375 0.171875 Z M 6.09375 0.171875 "/></g></g></g><g fill="#006c3f" fill-opacity="1"><g transform="translate(58.238691, 18.87097)"><g><path d="M 9.546875 -7.1875 L 9.546875 -7.265625 C 9.546875 -7.5 9.421875 -7.6875 9.15625 -7.71875 L 7.109375 -8.015625 C 6.625 -8.09375 6.3125 -7.90625 6.3125 -7.546875 L 6.3125 -7.4375 C 5.828125 -7.875 5.171875 -8.140625 4.296875 -8.140625 C 2.203125 -8.140625 0.359375 -6.46875 0.359375 -3.984375 C 0.359375 -1.265625 2.28125 0.171875 4.28125 0.171875 C 5.09375 0.171875 5.828125 -0.09375 6.3125 -0.5625 L 6.3125 -0.421875 C 6.3125 -0.171875 6.5 0 6.75 0 L 9.125 0 C 9.328125 0 9.484375 -0.109375 9.484375 -0.3125 L 9.484375 -0.375 C 9.484375 -0.84375 8.8125 -1.046875 8.8125 -1.8125 L 8.8125 -5.703125 C 8.8125 -6.609375 9.546875 -6.84375 9.546875 -7.1875 Z M 4.953125 -0.640625 C 3.703125 -0.703125 3.15625 -3.890625 3.203125 -5.28125 C 3.25 -6.609375 3.703125 -7.328125 4.515625 -7.328125 C 5.28125 -7.328125 6.015625 -6.5 6.015625 -5.25 L 6.015625 -2.046875 C 6.015625 -1.140625 5.515625 -0.625 4.953125 -0.640625 Z M 4.953125 -0.640625 "/></g></g></g><g fill="#006c3f" fill-opacity="1"><g transform="translate(68.233625, 18.87097)"><g><path d="M 14.484375 -1.8125 L 14.265625 -4.65625 C 14.0625 -7.34375 12.640625 -8.140625 11.21875 -8.140625 C 10.109375 -8.140625 9.203125 -7.640625 8.75 -6.78125 C 8.171875 -7.671875 7.171875 -8.140625 6.03125 -8.140625 C 5.078125 -8.140625 4.296875 -7.734375 3.8125 -7.078125 L 3.8125 -7.671875 C 3.8125 -8 3.609375 -8.265625 3.1875 -8.078125 L 0.703125 -6.921875 C 0.46875 -6.8125 0.296875 -6.703125 0.296875 -6.515625 L 0.296875 -6.46875 C 0.296875 -5.984375 1.171875 -5.859375 1.171875 -5.078125 L 1.171875 -1.8125 C 1.171875 -1.046875 0.453125 -0.828125 0.453125 -0.359375 L 0.453125 -0.296875 C 0.453125 -0.09375 0.59375 0.015625 0.84375 0.015625 L 4.4375 0.015625 C 4.6875 0.015625 4.828125 -0.09375 4.828125 -0.296875 L 4.828125 -0.359375 C 4.828125 -0.828125 4.109375 -1.046875 4.109375 -1.8125 L 4.109375 -5.46875 C 4.109375 -6.359375 4.453125 -7.046875 5.21875 -7.046875 C 5.90625 -7.046875 6.34375 -6.375 6.34375 -4.96875 L 6.34375 -1.8125 C 6.34375 -1.046875 5.765625 -0.828125 5.765625 -0.359375 L 5.765625 -0.296875 C 5.765625 -0.09375 5.90625 0.015625 6.15625 0.015625 L 9.46875 0.015625 C 9.703125 0.015625 9.859375 -0.09375 9.859375 -0.296875 L 9.859375 -0.359375 C 9.859375 -0.828125 9.265625 -1.046875 9.265625 -1.8125 L 9.265625 -4.765625 C 9.265625 -5.015625 9.25 -5.234375 9.21875 -5.46875 C 9.21875 -6.375 9.5625 -7.046875 10.25 -7.046875 C 10.96875 -7.046875 11.3125 -6.421875 11.390625 -4.75 L 11.5625 -1.8125 C 11.609375 -1.046875 10.96875 -0.828125 10.96875 -0.359375 L 10.96875 -0.296875 C 10.96875 -0.09375 11.125 0.015625 11.359375 0.015625 L 14.6875 0.015625 C 14.921875 0.015625 15.078125 -0.09375 15.078125 -0.296875 L 15.078125 -0.359375 C 15.078125 -0.828125 14.53125 -1.046875 14.484375 -1.8125 Z M 14.484375 -1.8125 "/></g></g></g><g fill="#006c3f" fill-opacity="1"><g transform="translate(83.508265, 18.87097)"><g><path d="M 7.34375 -2.625 C 7.046875 -2.21875 6.390625 -1.890625 5.5625 -1.890625 C 4.640625 -1.890625 3.90625 -2.40625 3.46875 -3.234375 C 3.96875 -3.21875 4.546875 -3.25 5.125 -3.359375 C 6.6875 -3.609375 7.796875 -4.5625 7.796875 -5.734375 C 7.796875 -7.1875 6.46875 -8.15625 4.484375 -8.140625 C 2.265625 -8.125 0.359375 -6.515625 0.359375 -4.03125 C 0.359375 -1.53125 2.109375 0.171875 4.5625 0.171875 C 6.953125 0.171875 7.90625 -1.484375 7.953125 -2.390625 C 7.96875 -2.75 7.578125 -2.859375 7.34375 -2.625 Z M 4.140625 -7.265625 C 4.6875 -7.265625 5.09375 -6.671875 5.109375 -5.953125 C 5.109375 -4.796875 4.71875 -4.28125 3.984375 -4.15625 C 3.765625 -4.125 3.46875 -4.109375 3.15625 -4.125 C 3.0625 -4.515625 3 -4.953125 3 -5.390625 C 3 -6.5 3.453125 -7.265625 4.140625 -7.265625 Z M 4.140625 -7.265625 "/></g></g></g><g fill="#006c3f" fill-opacity="1"><g transform="translate(91.793097, 18.87097)"><g><path d="M 5.984375 -8.140625 C 4.828125 -8.140625 4.046875 -7.5625 3.6875 -6.5 L 3.6875 -7.703125 C 3.6875 -8.03125 3.515625 -8.265625 3.09375 -8.078125 L 0.75 -6.96875 C 0.5 -6.84375 0.359375 -6.6875 0.359375 -6.5 L 0.359375 -6.4375 C 0.359375 -5.96875 1.15625 -5.890625 1.15625 -5.109375 L 1.15625 -1.8125 C 1.15625 -1.046875 0.5 -0.84375 0.5 -0.375 L 0.5 -0.3125 C 0.5 -0.109375 0.671875 0 0.890625 0 L 4.46875 0 C 4.703125 0 4.859375 -0.109375 4.859375 -0.3125 L 4.859375 -0.375 C 4.859375 -0.84375 3.984375 -1.046875 3.984375 -1.8125 L 3.984375 -4.90625 C 3.984375 -5.625 4.0625 -6.5 4.59375 -6.5 C 5.4375 -6.5 4.75 -4.9375 6.265625 -4.9375 C 7.21875 -4.9375 7.546875 -5.65625 7.546875 -6.5 C 7.546875 -7.421875 6.953125 -8.140625 5.984375 -8.140625 Z M 5.984375 -8.140625 "/></g></g></g><g fill="#006c3f" fill-opacity="1"><g transform="translate(99.330803, 18.87097)"><g><path d="M 9.546875 -7.1875 L 9.546875 -7.265625 C 9.546875 -7.5 9.421875 -7.6875 9.15625 -7.71875 L 7.109375 -8.015625 C 6.625 -8.09375 6.3125 -7.90625 6.3125 -7.546875 L 6.3125 -7.4375 C 5.828125 -7.875 5.171875 -8.140625 4.296875 -8.140625 C 2.203125 -8.140625 0.359375 -6.46875 0.359375 -3.984375 C 0.359375 -1.265625 2.28125 0.171875 4.28125 0.171875 C 5.09375 0.171875 5.828125 -0.09375 6.3125 -0.5625 L 6.3125 -0.421875 C 6.3125 -0.171875 6.5 0 6.75 0 L 9.125 0 C 9.328125 0 9.484375 -0.109375 9.484375 -0.3125 L 9.484375 -0.375 C 9.484375 -0.84375 8.8125 -1.046875 8.8125 -1.8125 L 8.8125 -5.703125 C 8.8125 -6.609375 9.546875 -6.84375 9.546875 -7.1875 Z M 4.953125 -0.640625 C 3.703125 -0.703125 3.15625 -3.890625 3.203125 -5.28125 C 3.25 -6.609375 3.703125 -7.328125 4.515625 -7.328125 C 5.28125 -7.328125 6.015625 -6.5 6.015625 -5.25 L 6.015625 -2.046875 C 6.015625 -1.140625 5.515625 -0.625 4.953125 -0.640625 Z M 4.953125 -0.640625 "/></g></g></g><g clip-path="url(#41ee755f59)"><path fill="#006c3f" d="M 63.867188 2.988281 L 71.335938 2.988281 C 72.285156 2.988281 73.152344 3.375 73.777344 4 C 74.402344 4.628906 74.792969 5.492188 74.792969 6.441406 L 74.792969 8.683594 C 74.171875 8.683594 74.136719 7.652344 74.136719 6.441406 C 74.136719 5.671875 73.820312 4.972656 73.3125 4.464844 C 72.804688 3.957031 72.105469 3.644531 71.335938 3.644531 L 64.757812 3.644531 C 65.425781 4.175781 66.039062 4.765625 66.597656 5.410156 C 65.984375 5.714844 63.515625 3.335938 61.585938 2.453125 C 59.914062 1.691406 58.050781 1.265625 56.085938 1.265625 C 54.722656 1.265625 53.410156 1.46875 52.175781 1.851562 C 51.253906 2.132812 50.375 2.515625 49.550781 2.988281 C 51.097656 2.988281 52.183594 2.988281 53.730469 2.988281 C 54.90625 2.988281 55.871094 3.21875 55.984375 3.644531 L 40.839844 3.644531 C 38.230469 3.644531 38.710938 6.441406 37.382812 6.441406 C 37.382812 5.492188 37.773438 4.628906 38.398438 4 C 39.023438 3.375 39.890625 2.988281 40.839844 2.988281 L 48.308594 2.988281 C 49.425781 2.230469 50.664062 1.632812 51.984375 1.222656 C 53.28125 0.824219 54.660156 0.609375 56.085938 0.609375 C 58.144531 0.609375 60.097656 1.054688 61.859375 1.859375 C 62.5625 2.179688 63.234375 2.558594 63.867188 2.988281 M 63.867188 26.039062 C 62.75 26.792969 61.511719 27.394531 60.191406 27.800781 C 58.894531 28.199219 57.515625 28.417969 56.085938 28.417969 C 53.433594 28.417969 50.957031 27.671875 48.847656 26.382812 C 48.664062 26.273438 48.480469 26.15625 48.304688 26.035156 L 48.304688 26.039062 L 40.839844 26.039062 C 39.886719 26.039062 39.023438 25.648438 38.398438 25.023438 C 37.773438 24.398438 37.382812 23.535156 37.382812 22.582031 L 37.382812 21.328125 C 38.585938 21.582031 37.21875 22.914062 38.863281 24.558594 C 39.371094 25.066406 40.070312 25.382812 40.839844 25.382812 L 47.417969 25.382812 C 45.882812 24.15625 44.613281 22.609375 43.707031 20.847656 C 44.054688 20.582031 44.875 21.945312 45.523438 22.625 C 46.578125 23.726562 47.765625 24.957031 49.1875 25.824219 C 51.195312 27.050781 53.558594 27.761719 56.085938 27.761719 C 57.449219 27.761719 58.765625 27.554688 60 27.175781 C 60.921875 26.890625 61.800781 26.507812 62.625 26.039062 L 59.226562 26.039062 C 58.015625 26.039062 56.988281 25.859375 56.988281 25.382812 L 71.335938 25.382812 C 73.902344 25.382812 73.382812 23.039062 74.707031 23.332031 C 74.535156 24.113281 74.09375 24.792969 73.492188 25.277344 C 72.898438 25.753906 72.148438 26.039062 71.335938 26.039062 Z M 63.867188 26.039062 " fill-opacity="1" fill-rule="nonzero"/></g><path fill="#006c3f" d="M 39.585938 4.394531 L 58.347656 4.617188 L 39.207031 4.960938 C 39.3125 4.761719 39.4375 4.570312 39.585938 4.394531 " fill-opacity="1" fill-rule="evenodd"/><path fill="#006c3f" d="M 38.949219 5.464844 L 63.242188 5.691406 L 38.625 6.035156 C 38.742188 5.875 38.84375 5.675781 38.949219 5.464844 " fill-opacity="1" fill-rule="evenodd"/><path fill="#006c3f" d="M 72.027344 24.816406 L 53.757812 24.597656 L 72.695312 24.257812 C 72.527344 24.46875 72.316406 24.667969 72.027344 24.816406 " fill-opacity="1" fill-rule="evenodd"/><path fill="#006c3f" d="M 73.046875 23.75 L 48.859375 23.523438 L 73.46875 23.179688 C 73.3125 23.316406 73.183594 23.523438 73.046875 23.75 " fill-opacity="1" fill-rule="evenodd"/></svg>